<svg width="24" height="24" viewBox="0 0 24 24" fill="none" xmlns="http://www.w3.org/2000/svg">
<path fill-rule="evenodd" clip-rule="evenodd" d="M13.3185 17.066L12 18.0201C12.2243 18.507 12.5915 18.8268 13.0002 18.9468C13.0059 18.2892 13.1174 17.6569 13.3185 17.066ZM13.644 16.2929L6.90641 20L6.47032 19.2802L7.14028 16.992L4.74589 13.0398C3.40882 10.8327 3.9265 8.08511 5.84165 6.37945L5.54544 5.89051C5.1834 5.29292 5.40777 4.5266 6.0479 4.1744C6.68803 3.82219 7.4966 4.02017 7.85864 4.61776L8.15485 5.1067C10.6624 4.37892 13.4181 5.32549 14.7552 7.53251L17.1496 11.4848L19.5639 12.0759L20 12.7957L19.5787 13.0275C19.3883 13.0093 19.1952 13 19 13C16.6603 13 14.6334 14.3392 13.644 16.2929Z" fill="#132C45"/>
<path fill-rule="evenodd" clip-rule="evenodd" d="M19.0001 14.4166C16.4688 14.4166 14.4167 16.4687 14.4167 19C14.4167 21.5313 16.4688 23.5833 19.0001 23.5833C21.5314 23.5833 23.5834 21.5313 23.5834 19C23.5834 16.4687 21.5314 14.4166 19.0001 14.4166ZM21.0834 18.0001L20.4334 17.3333H20.3044L18.5299 19.1407L17.7003 18.2957H17.5712L16.9167 18.9577V19.0892L18.4655 20.6666H18.5946L21.0834 18.1316V18.0001Z" fill="#29CC96"/>
</svg>
